<?xml version="1.0" encoding="UTF-8"?>
<svg width="480px" height="480px" viewBox="0 0 480 480" version="1.1" xmlns="http://www.w3.org/2000/svg" xmlns:xlink="http://www.w3.org/1999/xlink">
    <!-- Generator: Sketch 52.4 (67378) - http://www.bohemiancoding.com/sketch -->
    <title>car-parts</title>
    <desc>Created with Sketch.</desc>
    <g id="Page-1" stroke="none" stroke-width="1" fill="none" fill-rule="evenodd">
        <g id="car-parts">
            <path d="M456,8 L271.68,8 C266.838585,7.98353823 262.250081,10.1601366 259.2,13.92 L96,216 L96,448 L456,448 C464.825615,447.973642 471.973642,440.825615 472,432 L472,24 C471.973642,15.1743851 464.825615,8.02635841 456,8 Z M440,216 L176,216 L176,176 L241.92,96 L288,40 L440,40 L440,216 Z" id="Shape" fill="#FC0000" fill-rule="nonzero"></path>
            <path d="M424,248 C432.825615,248.026358 439.973642,255.174385 440,264 C439.934662,272.80935 432.80935,279.934662 424,280 L400,280 C391.174385,279.973642 384.026358,272.825615 384,264 C384.065338,255.19065 391.19065,248.065338 400,248 L424,248 Z" id="Path" fill="#D8D7DA"></path>
            <polygon id="Path" fill="#3E3D42" points="8 384 328 384 328 416 8 416"></polygon>
            <path d="M328,376 L328,384 L8,384 L8,376 C8.02635841,367.174385 15.1743851,360.026358 24,360 L312,360 C320.825615,360.026358 327.973642,367.174385 328,376 Z" id="Path" fill="#898890"></path>
            <path d="M328,448 L328,456 C327.973642,464.825615 320.825615,471.973642 312,472 L24,472 C15.1743851,471.973642 8.02635841,464.825615 8,456 L8,448 L328,448 Z" id="Path" fill="#3E3D42"></path>
            <polygon id="Path" fill="#898890" points="8 416 328 416 328 448 8 448"></polygon>
            <polygon id="Path" fill="#3E3D42" points="40 272 360 272 360 304 40 304"></polygon>
            <path d="M360,264 L360,272 L40,272 L40,264 C40.0263584,255.174385 47.1743851,248.026358 56,248 L344,248 C352.825615,248.026358 359.973642,255.174385 360,264 Z" id="Path" fill="#898890"></path>
            <path d="M360,336 L360,344 C359.973642,352.825615 352.825615,359.973642 344,360 L56,360 C47.1743851,359.973642 40.0263584,352.825615 40,344 L40,336 L360,336 Z" id="Path" fill="#3E3D42"></path>
            <polygon id="Path" fill="#898890" points="40 304 360 304 360 336 40 336"></polygon>
            <polygon id="Path" fill="#FCD462" points="440 96 440 216 176 216 176 176 241.92 96"></polygon>
            <polygon id="Path" fill="#000000" points="248 408 280 408 280 424 248 424"></polygon>
            <polygon id="Path" fill="#000000" points="216 408 232 408 232 424 216 424"></polygon>
            <polygon id="Path" fill="#000000" points="168 408 200 408 200 424 168 424"></polygon>
            <polygon id="Path" fill="#000000" points="136 408 152 408 152 424 136 424"></polygon>
            <polygon id="Path" fill="#000000" points="88 408 120 408 120 424 88 424"></polygon>
            <polygon id="Path" fill="#000000" points="56 408 72 408 72 424 56 424"></polygon>
            <polygon id="Path" fill="#000000" points="280 296 312 296 312 312 280 312"></polygon>
            <polygon id="Path" fill="#000000" points="248 296 264 296 264 312 248 312"></polygon>
            <polygon id="Path" fill="#000000" points="200 296 232 296 232 312 200 312"></polygon>
            <polygon id="Path" fill="#000000" points="168 296 184 296 184 312 168 312"></polygon>
            <polygon id="Path" fill="#000000" points="120 296 152 296 152 312 120 312"></polygon>
            <polygon id="Path" fill="#000000" points="88 296 104 296 104 312 88 312"></polygon>
            <path d="M456,4.97284658e-15 L271.68,4.97284658e-15 C264.404463,-0.00518289154 257.519336,3.29026235 252.96,8.96 L89.76,210.96 C88.628126,212.396954 88.0086806,214.17082 88,216 L88,240 L56,240 C42.7615776,240.039538 32.0395376,250.761578 32,264 L32,344 C32.0216365,346.729146 32.5086196,349.434608 33.44,352 L24,352 C10.7615776,352.039538 0.0395376133,362.761578 3.55271368e-15,376 L3.55271368e-15,456 C0.0395376133,469.238422 10.7615776,479.960462 24,480 L312,480 C325.238422,479.960462 335.960462,469.238422 336,456 L456,456 C469.238422,455.960462 479.960462,445.238422 480,432 L480,24 C479.960462,10.7615776 469.238422,0.0395376133 456,-2.20624472e-13 Z M320,392 L320,408 L296,408 L296,424 L320,424 L320,440 L280,440 L280,456 L320,456 C320,460.418278 316.418278,464 312,464 L24,464 C19.581722,464 16,460.418278 16,456 L264,456 L264,440 L16,440 L16,424 L40,424 L40,408 L16,408 L16,392 L56,392 L56,376 L16,376 C16,371.581722 19.581722,368 24,368 L312,368 C316.418278,368 320,371.581722 320,376 L72,376 L72,392 L320,392 Z M56,352 C51.581722,352 48,348.418278 48,344 L296,344 L296,328 L48,328 L48,312 L72,312 L72,296 L48,296 L48,280 L88,280 L88,264 L48,264 C48,259.581722 51.581722,256 56,256 L344,256 C348.418278,256 352,259.581722 352,264 L104,264 L104,280 L352,280 L352,296 L328,296 L328,312 L352,312 L352,328 L312,328 L312,344 L352,344 C352,348.418278 348.418278,352 344,352 L56,352 Z M464,432 C464,436.418278 460.418278,440 456,440 L336,440 L336,376 C335.978364,373.270854 335.49138,370.565392 334.56,368 L344,368 C357.238422,367.960462 367.960462,357.238422 368,344 L368,264 C367.960462,250.761578 357.238422,240.039538 344,240 L104,240 L104,218.8 L265.44,18.96 C266.97013,17.0865558 269.261097,15.9998152 271.68,16 L456,16 C460.418278,16 464,19.581722 464,24 L464,432 Z" id="Shape" fill="#000000" fill-rule="nonzero"></path>
            <path d="M440,32 L288,32 C285.618552,31.9871073 283.3572,33.044363 281.84,34.88 L169.84,170.88 C168.647351,172.319296 167.996348,174.130783 168,176 L168,216 C168,220.418278 171.581722,224 176,224 L440,224 C444.418278,224 448,220.418278 448,216 L448,40 C448,35.581722 444.418278,32 440,32 Z M432,208 L184,208 L184,178.88 L245.68,104 L432,104 L432,208 Z M432,88 L258.8,88 L291.76,48 L432,48 L432,88 Z" id="Shape" fill="#000000" fill-rule="nonzero"></path>
            <path d="M424,240 L400,240 C386.745166,240 376,250.745166 376,264 C376,277.254834 386.745166,288 400,288 L424,288 C437.254834,288 448,277.254834 448,264 C448,250.745166 437.254834,240 424,240 Z M424,272 L400,272 C395.581722,272 392,268.418278 392,264 C392,259.581722 395.581722,256 400,256 L424,256 C428.418278,256 432,259.581722 432,264 C432,268.418278 428.418278,272 424,272 Z" id="Shape" fill="#000000" fill-rule="nonzero"></path>
            <polygon id="Path" fill="#000000" points="352 120 384 120 384 136 352 136"></polygon>
            <polygon id="Path" fill="#000000" points="400 120 416 120 416 136 400 136"></polygon>
        </g>
    </g>
</svg>