<?xml version="1.0" encoding="UTF-8"?>
<svg width="494px" height="430px" viewBox="0 0 494 430" version="1.1" xmlns="http://www.w3.org/2000/svg" xmlns:xlink="http://www.w3.org/1999/xlink">
    <!-- Generator: Sketch 52.4 (67378) - http://www.bohemiancoding.com/sketch -->
    <title>mechanical</title>
    <desc>Created with Sketch.</desc>
    <g id="Page-1" stroke="none" stroke-width="1" fill="none" fill-rule="evenodd">
        <g id="mechanical" transform="translate(-1.000000, 0.000000)">
            <path d="M448.4,181.05 C499.54264,234.55929 501.399404,318.251975 452.680177,373.976751 C403.96095,429.701527 320.769994,439.038431 260.91,395.5 L261.89,394.13 L349.76,306.26 C372.601549,316.669668 399.442012,312.538676 418.096321,295.742417 C436.75063,278.946159 443.664829,252.684601 435.7,228.88 L410.14,254.44 L377.23,247.84 L371.21,213.83 L396.04,189.17 L396.04,189.16 C372.230092,181.151138 345.937699,188.039572 329.113478,206.694307 C312.289256,225.349042 308.143274,252.210748 318.56,275.07 L229.5,364.13 L229.48,364.14 C185.451281,303.80907 195.26353,219.756728 252.00497,171.18968 C308.74641,122.622633 393.306119,125.898608 446.12,178.71 C446.89,179.48 447.65,180.26 448.4,181.05 Z" id="Path" fill="#FC0000"></path>
            <path d="M465.6,107.55 L414.42,107.94 L397.47,77.23 L397.48,77.23 C397.48,77.23 423.53,77.14 436.19,77.05 C448.85,76.96 459.27,83.02 462.41,92.21 C464.099327,97.17291 465.170731,102.325057 465.6,107.55 Z" id="Path" fill="#FC0000"></path>
            <path d="M452.1,151.43 L448.4,181.05 C447.65,180.26 446.89,179.48 446.12,178.71 C407.600859,140.106958 350.471747,126.78722 298.851818,144.374203 C247.231888,161.961186 210.118332,207.389533 203.18,261.48 L203.17,261.48 L104.29,262.21 L55.96,262.56 L53.4,262.58 C42.811179,262.633883 34.1706157,254.11848 34.07,243.53 L22.14,154.6 C22,134.78 35.69,116.73 55.49,116.55 L55.4,116.71 L285.59,115.01 L365.17,114.43 L417.73,114.04 L417.73,114.05 C437.56,113.91 451.95,131.59 452.1,151.43 Z M81.75,208.52 C89.7994116,208.463142 97.0218048,203.562559 100.048814,196.103773 C103.075823,188.644988 101.311204,180.097193 95.5779361,174.446892 C89.8446685,168.796591 81.2720606,167.156749 73.8581887,170.292154 C66.4443167,173.427559 61.6495253,180.720615 61.71,188.77 C61.7477872,194.046693 63.8805303,199.092178 67.6389058,202.796166 C71.3972813,206.500154 76.4733172,208.559129 81.75,208.52 Z" id="Shape" fill="#F97334" fill-rule="nonzero"></path>
            <path d="M435.7,228.88 C443.664829,252.684601 436.75063,278.946159 418.096321,295.742417 C399.442012,312.538676 372.601549,316.669668 349.76,306.26 L261.89,394.13 L260.91,395.5 C248.870993,386.739189 238.267632,376.159443 229.48,364.14 L229.5,364.13 L318.56,275.07 C308.143274,252.210748 312.289256,225.349042 329.113478,206.694307 C345.937699,188.039572 372.230092,181.151138 396.04,189.16 L396.04,189.17 L371.21,213.83 L377.23,247.84 L410.14,254.44 L435.7,228.88 Z" id="Path" fill="#F8EC7D"></path>
            <path d="M55.49,116.55 L58.85,110.49 L75.88,79.79 L93.97,47.16 C103.87,26.36 119.79,8.74 141.32,8.58 L332.4,7.18 C353.93,7.02 367.99,24.41 379.77,45.17 L397.47,77.23 L414.42,107.94 L417.79,114.04 L417.73,114.04 L365.17,114.43 L365.16,113.11 C364.997076,91.1345898 347.05041,73.452076 325.075,73.615 C303.09959,73.777924 285.417076,91.7245898 285.58,113.7 L285.59,115.01 L55.4,116.71 L55.49,116.55 Z" id="Path" fill="#EEEFEE"></path>
            <path d="M365.16,113.11 L365.17,114.43 L285.59,115.01 L285.58,113.7 C285.417076,91.7245898 303.09959,73.777924 325.075,73.615 C347.05041,73.452076 364.997076,91.1345898 365.16,113.11 Z" id="Path" fill="#FC0000"></path>
            <path d="M104.55,297.17 C104.568633,299.716099 103.575034,302.16531 101.787798,303.978802 C100.000562,305.792293 97.5660995,306.821502 95.02,306.84 L65.88,307.05 C63.3351453,307.070235 60.8865193,306.078524 59.0729676,304.293104 C57.2594159,302.507684 56.229549,300.07486 56.21,297.53 L55.97,264.13 L55.96,262.56 L104.29,262.21 L104.3,263.77 L104.55,297.17 Z" id="Path" fill="#EEEFEE"></path>
            <path d="M101.5,188.48 C101.560475,196.529385 96.7656833,203.822441 89.3518113,206.957846 C81.9379394,210.093251 73.3653315,208.453409 67.6320639,202.803108 C61.8987963,197.152807 60.1341772,188.605012 63.1611862,181.146227 C66.1881952,173.687441 73.4105884,168.786858 81.46,168.73 C86.7366828,168.690871 91.8127187,170.749846 95.5710942,174.453834 C99.3294697,178.157822 101.462213,183.203307 101.5,188.48 Z" id="Path" fill="#FC0000"></path>
            <path d="M75.88,79.79 L58.85,110.49 L58.82,110.48 L8,110.92 C8.34984533,105.691039 9.34403446,100.525286 10.96,95.54 C13.96,86.3 24.28,80.09 36.95,79.99 C49.62,79.89 75.83,79.76 75.83,79.76 L75.88,79.79 Z" id="Path" fill="#FC0000"></path>
            <path d="M81.6,216 L81.8,216 C88.985,215 95.72,212.861 100.762,207.745 C105.788509,202.628444 108.572616,195.722145 108.5,188.55 C108.377872,173.805268 96.3560947,161.935054 81.611,162 L81.411,162 C74.2939647,161.98987 67.4682585,164.82551 62.4534357,169.875644 C57.4386128,174.925777 54.6509345,181.771211 54.711,188.888 C54.7413605,196.08583 57.6235057,202.978167 62.726,208.055 C67.7248711,213.086545 74.5076263,215.941742 81.6,216 Z M72.42,179.707 C74.823317,177.29125 78.1037093,175.953618 81.511,176 L81.611,176 C86.1725671,175.983566 90.3963965,178.401947 92.6914126,182.344163 C94.9864286,186.286379 95.0039637,191.153513 92.7374126,195.112163 C90.4708614,199.070813 86.2645671,201.519566 81.703,201.536 C74.6003315,201.60151 68.7863824,195.90256 68.71,188.8 C68.6744433,185.393785 70.0112027,182.11658 72.419,179.707 L72.42,179.707 Z" id="Shape" fill="#000000" fill-rule="nonzero"></path>
            <path d="M459.046,152.3 C459.083971,151.994497 459.102009,151.686847 459.1,151.379 C458.984,136.131 451.8,122.713 440.958,114.74 L465.653,114.552 C467.567786,114.537455 469.393026,113.739145 470.70355,112.343029 C472.014075,110.946912 472.695466,109.074879 472.589,107.163 C472.124243,101.291368 470.930054,95.5004717 469.034,89.924 C464.9,77.81 452.137,70 436.476,70 L436.14,70 C426.656,70 409.459,70.161 401.591,70.19 L385.858,41.613 C374.875,22.257 358.917,0 332.7,0 L332.354,0 L141.268,1.49 C119.734,1.65 100.731,16.743 87.744,43.909 L71.758,72.759 C63.913,72.802 46.513,72.911 36.895,72.979 C21.076,73.104 8.283,81.112 4.305,93.365 C2.49147949,98.9621328 1.38292837,104.76355 1.005,110.635 C0.925030977,112.547701 1.62412562,114.411071 2.9424746,115.799153 C4.26082358,117.187236 6.08571921,117.981363 8,118 L8.061,118 L32.104,117.752 C21.681,125.858 15.031,139.252 15.14,154.669 C15.1426673,154.960335 15.1633736,155.251225 15.202,155.54 L27.078,244.06 C27.4200841,256.61765 36.6138272,267.171503 49.006,269.232 L49.206,297.584 C49.2796907,306.689121 56.6946135,314.024506 65.8,314 L65.929,314 L95.072,313.815 C104.233062,313.742912 111.605549,306.266171 111.549,297.105 L111.34,269.149 L195.44,268.534 C195.158,272.287 194.999,276.063 194.999,279.834 C194.995286,319.617612 210.79762,357.772857 238.928882,385.904118 C267.060143,414.03538 305.215388,429.837714 344.999,429.834 C427.709,429.834 494.999,362.544 494.999,279.834 C495.068277,242.384216 481.058966,206.276394 455.75,178.673 L459.046,152.3 Z M436.24,84 L436.467,84 C445.902,84 453.65,88.2 455.788,94.452 C456.470361,96.4672318 457.037939,98.5195238 457.488,100.599 L418.533,100.899 L409.3,84.157 C417.883,84.123 429.188,84 436.24,84 Z M100.092,50.555 C100.163,50.428 100.229,50.299 100.292,50.169 C106.407,37.319 119.877,15.65 141.372,15.49 L332.452,14 L332.697,14 C347.72,14 359.997,24.411 373.642,48.463 L405.976,107.082 L371.765,107.355 C368.712014,83.9171132 348.656507,66.4380135 325.02129,66.6161658 C301.386072,66.7943182 281.596329,84.5737546 278.897,108.055 L67.337,109.62 L100.092,50.555 Z M357.621,107.481 L293.043,107.955 C295.708336,92.2739325 309.228623,80.7574 325.134,80.62 C341.047423,80.5011513 354.74752,91.8287073 357.621,107.481 Z M17.621,97.701 C19.674,91.37 27.465,87.065 37,86.99 C44.076,86.94 55.373,86.874 63.97,86.825 L54.714,103.516 L16.014,103.851 C16.4315768,101.771905 16.9671089,99.7182532 17.618,97.7 L17.621,97.701 Z M41.07,243.483 C41.0678339,243.187659 41.0471265,242.892746 41.008,242.6 L29.14,154.128 C29.214,139.541 38.522,124.677 54.232,123.745 C54.6135911,123.862232 55.0042708,123.947526 55.4,124 L55.452,124 L417.567,121.162 C417.622,121.162 417.674,121 417.729,121 L417.951,121 C432.68,121 444.76,134.4 445.094,151.017 L443.175,166.4 C415.961904,142.716707 381.075477,129.719447 345,129.824 C299.229837,129.921487 255.988844,150.832144 227.492,186.649 L227.37,170.8 C227.350049,168.967895 226.599715,167.219521 225.285506,165.942861 C223.971297,164.666201 222.201913,163.96685 220.37,164 L220.316,164 C218.472979,163.976302 216.697977,164.695364 215.391088,165.995105 C214.084198,167.294846 213.355411,169.065877 213.369,170.909 L213.509,189.146 C213.52667,190.983692 214.274511,192.738902 215.587637,194.02464 C216.900763,195.310378 218.671344,196.021062 220.509,196 L220.563,196 C220.574,196 220.585,196.018 220.597,196.018 C208.681777,213.613575 200.686018,233.563754 197.151,254.518 L104.239,255.206 L53.347,255.578 C46.6251408,255.60312 41.1424916,250.199515 41.07,243.478 L41.07,243.483 Z M97.55,297.223 C97.5583465,297.910881 97.2895972,298.573197 96.8042857,299.060766 C96.3189742,299.548335 95.6579127,299.820154 94.97,299.815 L65.827,300 L65.807,300 C64.3873791,300.013336 63.2245732,298.875575 63.207,297.456 L63.007,269.498 L97.339,269.252 L97.55,297.223 Z M238.776,364.753 L323.51,280.021 C325.576209,277.955117 326.141919,274.82318 324.929,272.165 C315.307635,250.877301 319.832138,225.859439 336.3,209.29 C348.293465,197.216172 365.147586,191.286162 382.059,193.19 L366.277,208.864 C364.649335,210.480577 363.917062,212.792092 364.317,215.051 L370.337,249.061 C370.839365,251.898177 373.028889,254.137706 375.854,254.704 L408.764,261.304 C411.060144,261.765782 413.434991,261.047246 415.09,259.39 L431.644,242.836 C433.811395,262.865044 425.06622,282.517122 408.735973,294.314716 C392.405726,306.11231 371.00131,308.241447 352.667,299.892 C350.008755,298.678358 346.876293,299.243693 344.81,301.31 L260.077,386.043 C252.211685,379.755348 245.067713,372.615066 238.776,364.753 Z M345,415.83 C318.971456,415.889864 293.481532,408.417404 271.605,394.314 L351.405,314.514 C376.695991,323.955056 405.161479,318.02369 424.576922,299.267136 C443.992365,280.510582 450.902593,252.266753 442.34,226.665 C441.572384,224.363611 439.667883,222.623767 437.306648,222.066817 C434.945413,221.509866 432.464154,222.215229 430.749,223.931 L407.841,246.84 L383.29,241.916 L378.741,216.216 L400.973,194.137 C402.695391,192.423953 403.408117,189.941291 402.85669,187.575473 C402.305264,185.209656 400.5683,183.297969 398.266,182.523 C373.05502,173.957543 345.166801,180.503703 326.4,199.392 C307.085233,218.834158 300.807309,247.717444 310.309,273.423 L230.509,353.223 C207.636573,317.477162 202.71654,273.118124 217.2,233.229 C233.129807,189.582937 270.232956,157.085032 315.597366,147.044718 C360.961777,137.004405 408.31316,150.810344 441.173,183.658 C441.896333,184.382 442.61,185.115333 443.314,185.858 L443.32,185.865 L443.327,185.872 L443.343,185.889 C467.568121,211.15674 481.064535,244.825558 481,279.83 C481,354.82 419.991,415.83 345,415.83 Z" id="Shape" fill="#000000" fill-rule="nonzero"></path>
            <path d="M186.549,196 L186.6,196 C188.442676,196.023944 190.217518,195.30561 191.524822,194.00677 C192.832126,192.707931 193.561974,190.937792 193.55,189.095 L193.42,170.858 C193.403386,169.019612 192.65601,167.263374 191.342768,165.976773 C190.029526,164.690171 188.258343,163.97894 186.42,164 L186.369,164 C184.513134,164.004184 182.735661,164.748757 181.430894,166.068544 C180.126126,167.38833 179.401945,169.174208 179.419,171.03 L179.549,189.205 C179.5684,191.036833 180.318727,192.785024 181.633206,194.061008 C182.947684,195.336991 184.717399,196.03504 186.549,196 Z" id="Path" fill="#000000"></path>
            <path d="M152.6,197 L152.655,197 C156.568966,196.871744 159.658718,193.631642 159.601,189.716 L159.461,171.166 C159.448329,167.277858 156.347778,164.103779 152.461,164 L152.406,164 C148.515665,164.069569 145.412068,167.268339 145.46,171.159 L145.6,189.771 C145.607942,193.671707 148.701569,196.86654 152.6,197 Z" id="Path" fill="#000000"></path>
        </g>
    </g>
</svg>