<?xml version="1.0" encoding="UTF-8"?>
<svg width="480px" height="480px" viewBox="0 0 480 480" version="1.1" xmlns="http://www.w3.org/2000/svg" xmlns:xlink="http://www.w3.org/1999/xlink">
    <!-- Generator: Sketch 52.4 (67378) - http://www.bohemiancoding.com/sketch -->
    <title>repair-shop</title>
    <desc>Created with Sketch.</desc>
    <g id="Page-1" stroke="none" stroke-width="1" fill="none" fill-rule="evenodd">
        <g id="repair-shop">
            <polygon id="Path" fill="#FEE9AB" points="40 192 440 192 440 440 40 440"></polygon>
            <polygon id="Path" fill="#FFD422" points="408 192 440 192 440 440 408 440"></polygon>
            <path d="M472,456 C471.934662,464.80935 464.80935,471.934662 456,472 L24,472 C15.1743851,471.973642 8.02635841,464.825615 8,456 C8.0653378,447.19065 15.1906497,440.065338 24,440 L456,440 C464.825615,440.026358 471.973642,447.174385 472,456 Z" id="Path" fill="#898890"></path>
            <path d="M472,456 C471.934662,464.80935 464.80935,471.934662 456,472 L424,472 C432.80935,471.934662 439.934662,464.80935 440,456 C439.973642,447.174385 432.825615,440.026358 424,440 L456,440 C464.825615,440.026358 471.973642,447.174385 472,456 Z" id="Path" fill="#57565C"></path>
            <path d="M450,101.76 L464,200 C464,217.673112 449.673112,232 432,232 C414.326888,232 400,217.673112 400,200 L400,88 L434.16,88 C442.117342,88.0355214 448.851994,93.885825 450,101.76 Z" id="Path" fill="#FC0000"></path>
            <path d="M464,200 C464.01807,211.439226 457.919451,222.015368 448.009846,227.729907 C438.100242,233.444446 425.891737,233.425411 416,227.68 C418.412818,226.28042 420.64311,224.587548 422.64,222.64 C428.621113,216.621351 431.984847,208.485141 432,200 L418,101.76 C416.851994,93.885825 410.117342,88.0355214 402.16,88 L434.16,88 C442.117342,88.0355214 448.851994,93.885825 450,101.76 L464,200 Z" id="Path" fill="#CD2A00"></path>
            <rect id="Rectangle" fill="#46F8FF" x="240" y="264" width="160" height="144" rx="16"></rect>
            <path d="M400,280 L400,392 C399.973642,400.825615 392.825615,407.973642 384,408 L352,408 C360.825615,407.973642 367.973642,400.825615 368,392 L368,280 C367.973642,271.174385 360.825615,264.026358 352,264 L384,264 C392.825615,264.026358 399.973642,271.174385 400,280 Z" id="Path" fill="#00D7DF"></path>
            <rect id="Rectangle" fill="#EBE5DD" x="112" y="8" width="256" height="176" rx="16"></rect>
            <path d="M368,24 L368,168 C367.973642,176.825615 360.825615,183.973642 352,184 L320,184 C328.825615,183.973642 335.973642,176.825615 336,168 L336,24 C335.973642,15.1743851 328.825615,8.02635841 320,8 L352,8 C360.825615,8.02635841 367.973642,15.1743851 368,24 Z" id="Path" fill="#C0AB91"></path>
            <path d="M192,320 L192,440 L80,440 L80,320 C79.9999997,299.993127 90.6735393,281.506013 108,271.502577 C125.32646,261.49914 146.67354,261.49914 164,271.502577 C181.326461,281.506013 192,299.993127 192,320 Z" id="Path" fill="#A78966"></path>
            <path d="M192,320 L192.000002,440 L160,440 L160,320 C160.006355,295.229299 143.738132,273.397343 120,266.32 C136.950339,261.266385 155.291847,264.517823 169.472162,275.090036 C183.652478,285.662248 192.004538,302.312349 192,320 Z" id="Path" fill="#806749"></path>
            <path d="M400,88 L400,200 C400,217.673112 385.673112,232 368,232 C350.326888,232 336,217.673112 336,200 L336,184 L352,184 C360.825615,183.973642 367.973642,176.825615 368,168 L368,88 L400,88 Z" id="Path" fill="#FC0000"></path>
            <path d="M336,184 L336,200 C336,217.673112 321.673112,232 304,232 C286.326888,232 272,217.673112 272,200 L272,184 L336,184 Z" id="Path" fill="#FC0000"></path>
            <polygon id="Path" fill="#ACABB1" points="312 40 320 80 312 120 280 120 272 80 280 40"></polygon>
            <polygon id="Path" fill="#A78966" points="280 120 312 120 312 184 280 184"></polygon>
            <path d="M272,184 L272,200 C272,217.673112 257.673112,232 240,232 C222.326888,232 208,217.673112 208,200 L208,184 L272,184 Z" id="Path" fill="#FC0000"></path>
            <path d="M208,42.8 C227.176417,49.5520392 240.005026,67.6696043 240.005026,88 C240.005026,108.330396 227.176417,126.447961 208,133.2 L208,184 L176,184 L176,133.2 C156.823583,126.447961 143.994974,108.330396 143.994974,88 C143.994974,67.6696043 156.823583,49.5520392 176,42.8 L176,88 L208,88 L208,42.8 Z" id="Path" fill="#ACABB1"></path>
            <g id="Group" transform="translate(16.000000, 88.000000)" fill="#FC0000">
                <path d="M192,96 L192,112 C192,129.673112 177.673112,144 160,144 C142.326888,144 128,129.673112 128,112 L128,96 L192,96 Z" id="Path"></path>
                <path d="M128,96 L128,112 C128,129.673112 113.673112,144 96,144 C78.326888,144 64,129.673112 64,112 L64,0 L96,0 L96,80 C96.0263584,88.8256149 103.174385,95.9736416 112,96 L128,96 Z" id="Path"></path>
                <path d="M64,0 L64,112 C64,129.673112 49.673112,144 32,144 C14.326888,144 0,129.673112 0,112 L14,13.76 C15.1480064,5.88582495 21.8826581,0.0355213829 29.84,1.42108547e-14 L64,0 Z" id="Path"></path>
            </g>
            <path d="M256,416 L384,416 C397.254834,416 408,405.254834 408,392 L408,280 C408,266.745166 397.254834,256 384,256 L256,256 C242.745166,256 232,266.745166 232,280 L232,392 C232,405.254834 242.745166,416 256,416 Z M248,280 C248,275.581722 251.581722,272 256,272 L384,272 C388.418278,272 392,275.581722 392,280 L392,392 C392,396.418278 388.418278,400 384,400 L256,400 C251.581722,400 248,396.418278 248,392 L248,280 Z" id="Shape" fill="#000000" fill-rule="nonzero"></path>
            <path d="M360,328 L376,328 L376,296 C376,291.581722 372.418278,288 368,288 L336,288 L336,304 L360,304 L360,328 Z" id="Path" fill="#000000"></path>
            <polygon id="Path" fill="#000000" points="160 360 176 360 176 376 160 376"></polygon>
            <path d="M456,432 L440,432 L440,239.2 C458.597776,235.350166 471.95138,218.992002 472,200 C472.013219,199.624884 471.986401,199.249429 471.92,198.88 L457.84,100.64 C456.170575,88.8324496 446.084911,80.0415669 434.16,80 L376,80 L376,24 C375.960462,10.7615776 365.238422,0.0395376133 352,3.55271368e-15 L128,3.55271368e-15 C114.761578,0.0395376133 104.039538,10.7615776 104,24 L104,80 L45.84,80 C33.9150891,80.0415669 23.8294252,88.8324496 22.16,100.64 L8.08,198.88 C8.01359945,199.249429 7.98678118,199.624884 8,200 C8.04862045,218.992002 21.4022237,235.350166 40,239.2 L40,432 L24,432 C10.745166,432 7.10542736e-15,442.745166 3.55271368e-15,456 C0,469.254834 10.745166,480 24,480 L456,480 C469.254834,480 480,469.254834 480,456 C480,442.745166 469.254834,432 456,432 Z M408,96 L434.16,96 C438.133571,96.0312797 441.493324,98.9498525 442.08,102.88 L456,200.56 C455.899966,209.134374 451.233156,217.004055 443.757513,221.20461 C436.28187,225.405164 427.133122,225.298429 419.757513,220.92461 C412.381904,216.55079 407.899966,208.574374 408,200 L408,96 Z M376,168 L376,96 L392,96 L392,200 C392,213.254834 381.254834,224 368,224 C354.745166,224 344,213.254834 344,200 L344,192 L352,192 C365.238422,191.960462 375.960462,181.238422 376,168 Z M120,24 C120,19.581722 123.581722,16 128,16 L352,16 C356.418278,16 360,19.581722 360,24 L360,168 C360,172.418278 356.418278,176 352,176 L320,176 L320,120.8 L327.84,81.6 C328.080038,80.5468376 328.080038,79.4531624 327.84,78.4 L319.84,38.4 C319.07957,34.67467 315.802149,31.999224 312,32 L280,32 C276.197851,31.999224 272.92043,34.67467 272.16,38.4 L264.16,78.4 C263.919962,79.4531624 263.919962,80.5468376 264.16,81.6 L272,120.8 L272,176 L216,176 L216,138.56 C236.486808,128.864098 249.09327,107.759339 247.918568,85.124412 C246.743866,62.4894855 232.020435,42.8030861 210.64,35.28 C208.199677,34.4151713 205.492715,34.7721333 203.36,36.24 C201.267989,37.7742933 200.022601,40.2057651 200,42.8 L200,80 L184,80 L184,42.8 C183.977399,40.2057651 182.732011,37.7742933 180.64,36.24 C178.505367,34.7771312 175.80088,34.4204956 173.36,35.28 C151.979565,42.8030861 137.256134,62.4894855 136.081432,85.124412 C134.90673,107.759339 147.513192,128.864098 168,138.56 L168,176 L128,176 C123.581722,176 120,172.418278 120,168 L120,24 Z M286.56,112 L280.16,80 L286.56,48 L305.44,48 L311.84,80 L305.44,112 L286.56,112 Z M304,128 L304,176 L288,176 L288,128 L304,128 Z M328,192 L328,200 C328,213.254834 317.254834,224 304,224 C290.745166,224 280,213.254834 280,200 L280,192 L328,192 Z M184,176 L184,133.2 C183.986499,129.811061 181.839129,126.798332 178.64,125.68 C164.754619,120.751126 154.703184,108.587771 152.479076,94.0223684 C150.254967,79.4569662 156.218348,64.8481797 168,56 L168,88 C168,92.418278 171.581722,96 176,96 L208,96 C212.418278,96 216,92.418278 216,88 L216,56 C227.781652,64.8481797 233.745033,79.4569662 231.520924,94.0223684 C229.296816,108.587771 219.245381,120.751126 205.36,125.68 C202.160871,126.798332 200.013501,129.811061 200,133.2 L200,176 L184,176 Z M200,192 L200,200 C200,213.254834 189.254834,224 176,224 C162.745166,224 152,213.254834 152,200 L152,192 L200,192 Z M216,192 L264,192 L264,200 C264,213.254834 253.254834,224 240,224 C226.745166,224 216,213.254834 216,200 L216,192 Z M88,96 L104,96 L104,168 C104.039538,181.238422 114.761578,191.960462 128,192 L136,192 L136,200 C136,213.254834 125.254834,224 112,224 C98.745166,224 88,213.254834 88,200 L88,96 Z M80,224 C87.5541753,234.072234 99.4097079,240 112,240 C124.590292,240 136.445825,234.072234 144,224 C151.554175,234.072234 163.409708,240 176,240 C188.590292,240 200.445825,234.072234 208,224 C215.554175,234.072234 227.409708,240 240,240 C252.590292,240 264.445825,234.072234 272,224 C279.554175,234.072234 291.409708,240 304,240 C316.590292,240 328.445825,234.072234 336,224 C343.554175,234.072234 355.409708,240 368,240 C380.590292,240 392.445825,234.072234 400,224 C405.881282,231.805922 414.419885,237.185242 424,239.12 L424,432 L200,432 L200,320 C200,284.653776 171.346224,256 136,256 C100.653776,256 72,284.653776 72,320 L72,432 L56,432 L56,239.12 C65.5801153,237.185242 74.1187178,231.805922 80,224 Z M184,320 L184,432 L88,432 L88,320 C88.0000006,293.490332 109.490332,272.000001 136,272.000001 C162.509668,272.000001 183.999999,293.490332 184,320 Z M24,200.56 L37.92,102.88 C38.5066762,98.9498525 41.8664286,96.0312797 45.84,96 L72,96 L72,200 C72.1000344,208.574374 67.6180958,216.55079 60.2424871,220.92461 C52.8668785,225.298429 43.7181301,225.405164 36.2424871,221.20461 C28.7668441,217.004055 24.1000344,209.134374 24,200.56 Z M456,464 L24,464 C19.581722,464 16,460.418278 16,456 C16,451.581722 19.581722,448 24,448 L456,448 C460.418278,448 464,451.581722 464,456 C464,460.418278 460.418278,464 456,464 Z" id="Shape" fill="#000000" fill-rule="nonzero"></path>
        </g>
    </g>
</svg>