<?xml version="1.0" encoding="UTF-8"?>
<svg width="492px" height="486px" viewBox="0 0 492 486" version="1.1" xmlns="http://www.w3.org/2000/svg" xmlns:xlink="http://www.w3.org/1999/xlink">
    <!-- Generator: Sketch 52.4 (67378) - http://www.bohemiancoding.com/sketch -->
    <title>stock</title>
    <desc>Created with Sketch.</desc>
    <g id="Page-1" stroke="none" stroke-width="1" fill="none" fill-rule="evenodd">
        <g id="stock">
            <polygon id="Path" fill="#FC0000" points="366 254 462 254 462 478 366 478"></polygon>
            <polygon id="Path" fill="#FFE477" points="198 222 294 222 294 478 198 478"></polygon>
            <polygon id="Path" fill="#FC0000" points="30 150 126 150 126 478 30 478"></polygon>
            <path d="M126,150 L126,478 L30,478 L30,454 L70,454 C87.673112,454 102,439.673112 102,422 L102,150 L126,150 Z" id="Path" fill="#DA3D15"></path>
            <path d="M462,254 L462,478 L366,478 L366,454 L406,454 C423.673112,454 438,439.673112 438,422 L438,254 L462,254 Z" id="Path" fill="#DA3D15"></path>
            <path d="M294,222 L294,478 L198,478 L198,454 L238,454 C255.673112,454 270,439.673112 270,422 L270,222 L294,222 Z" id="Path" fill="#EBBF00"></path>
            <circle id="Oval" fill="#FFE477" cx="398" cy="94" r="80"></circle>
            <path d="M478,94 C477.998753,129.494613 454.60991,160.744367 420.555248,170.75174 C386.500585,180.759112 349.923832,167.130969 330.72,137.28 C362.377964,157.641075 403.947692,153.179262 430.563477,126.563477 C457.179262,99.9476916 461.641075,58.3779636 441.28,26.72 C464.175121,41.433478 478.011278,66.784694 478,94 Z" id="Path" fill="#EBBF00"></path>
            <path d="M294,214 L198,214 C193.581722,214 190,217.581722 190,222 L190,478 C190,482.418278 193.581722,486 198,486 L294,486 C298.418278,486 302,482.418278 302,478 L302,222 C302,217.581722 298.418278,214 294,214 Z M286,470 L206,470 L206,230 L286,230 L286,470 Z" id="Shape" fill="#000000" fill-rule="nonzero"></path>
            <path d="M126,142 L30,142 C25.581722,142 22,145.581722 22,150 L22,478 C22,482.418278 25.581722,486 30,486 L126,486 C130.418278,486 134,482.418278 134,478 L134,150 C134,145.581722 130.418278,142 126,142 Z M118,470 L38,470 L38,158 L118,158 L118,470 Z" id="Shape" fill="#000000" fill-rule="nonzero"></path>
            <path d="M462,246 L366,246 C361.581722,246 358,249.581722 358,254 L358,478 C358,482.418278 361.581722,486 366,486 L462,486 C466.418278,486 470,482.418278 470,478 L470,254 C470,249.581722 466.418278,246 462,246 Z M454,470 L374,470 L374,262 L454,262 L454,470 Z" id="Shape" fill="#000000" fill-rule="nonzero"></path>
            <path d="M444.08,168.8 C480.142123,146.570065 495.228605,101.787927 479.969014,62.2684178 C464.709422,22.7489087 423.441773,-0.27331838 381.797998,7.50117439 C340.154223,15.2756672 309.972864,51.6367377 310,94 C309.95935,108.681864 313.647973,123.133562 320.72,136 L278,178.72 L163.68,64.32 C160.535936,61.200177 155.464064,61.200177 152.32,64.32 L114,102.72 L11.68,0.32 L0.32,11.68 L108.32,119.68 C111.464064,122.799823 116.535936,122.799823 119.68,119.68 L158,81.28 L272.32,195.68 C275.474689,198.773923 280.525311,198.773923 283.68,195.68 L329.76,149.52 C346.462902,170.0603 371.525658,181.98935 398,182 C408.584779,181.982702 419.077234,180.030617 428.96,176.24 L480.32,227.68 L491.68,216.32 L444.08,168.8 Z M398,166 C358.235498,166 326,133.764502 326,94 C326,54.235498 358.235498,22 398,22 C437.764502,22 470,54.235498 470,94 C469.938328,133.738928 437.738928,165.938328 398,166 Z" id="Shape" fill="#000000" fill-rule="nonzero"></path>
            <path d="M390,70 L390,86 L406,86 C414.825615,86.0263584 421.973642,93.1743851 422,102 L422,118 C421.973642,126.825615 414.825615,133.973642 406,134 L406,150 L390,150 L390,134 L374,134 L374,118 L406,118 L406,102 L390,102 C381.174385,101.973642 374.026358,94.8256149 374,86 L374,70 C374.026358,61.1743851 381.174385,54.0263584 390,54 L390,38 L406,38 L406,54 L422,54 L422,70 L390,70 Z" id="Path" fill="#000000"></path>
        </g>
    </g>
</svg>