<?xml version="1.0" encoding="UTF-8"?>
<svg width="411px" height="478px" viewBox="0 0 411 478" version="1.1" xmlns="http://www.w3.org/2000/svg" xmlns:xlink="http://www.w3.org/1999/xlink">
    <!-- Generator: Sketch 52.4 (67378) - http://www.bohemiancoding.com/sketch -->
    <title>worker</title>
    <desc>Created with Sketch.</desc>
    <g id="Page-1" stroke="none" stroke-width="1" fill="none" fill-rule="evenodd">
        <g id="worker" transform="translate(0.270270, -0.162162)">
            <path d="M276.881297,310.299243 L298.253838,314.111568 C349.232432,324.379243 385.895784,374.091676 385.895784,426.09427 L385.895784,474.256865 L3.61859459,474.256865 L3.61859459,426.087351 C3.61859459,374.084757 39.7284324,324.123243 90.707027,313.855568 L111.955027,309.455135" id="Path" fill="#EEEFEE"></path>
            <path d="M385.868108,426.073514 L385.868108,474.229189 L3.59783784,474.229189 L3.59783784,452.988108 L359.922162,452.988108 L359.922162,404.832432 C359.701078,375.763166 348.847507,347.78015 329.40973,326.164324 C364.283816,347.421053 385.650847,385.232318 385.868108,426.073514 Z" id="Path" fill="#E1E6E9"></path>
            <path d="M194.760649,349.481081 L161.328432,370.563027 L111.955027,309.455135 C122.638335,307.884651 133.437695,307.243403 144.231784,307.538595 L194.760649,349.481081 Z" id="Path" fill="#FC0000"></path>
            <path d="M161.328432,374.022486 C160.282905,374.022263 159.293564,373.549211 158.636973,372.735568 L109.263568,311.634595 C108.483372,310.671512 108.278022,309.364631 108.725255,308.208684 C109.172488,307.052736 110.203957,306.224377 111.429189,306.037189 C122.312197,304.441585 133.312431,303.786479 144.307892,304.079135 C145.090005,304.095009 145.843648,304.375491 146.445838,304.874811 L196.953946,346.817297 C197.807335,347.525359 198.26958,348.599598 198.196999,349.706104 C198.124419,350.812611 197.525811,351.817263 196.587243,352.407784 L163.175784,373.48973 C162.622709,373.8383 161.982185,374.02302 161.328432,374.022486 Z M118.514162,312.070486 L162.103351,365.989622 L188.886486,349.100541 L142.958703,310.977297 C134.795528,310.831947 126.631281,311.199373 118.514162,312.077405 L118.514162,312.070486 Z" id="Shape" fill="#323C6B" fill-rule="nonzero"></path>
            <path d="M194.760649,349.481081 L228.192865,370.563027 L276.888216,310.299243 C266.458184,308.441826 255.883631,307.515656 245.289514,307.531676 L194.760649,349.481081 Z" id="Path" fill="#FC0000"></path>
            <g id="Group" transform="translate(77.108108, 303.432432)" fill="#323C6B">
                <path d="M151.077838,70.5900541 C150.424085,70.5905879 149.783561,70.4058677 149.230486,70.0572973 L115.79827,48.9753514 C114.859702,48.384831 114.261094,47.3801783 114.188514,46.2736718 C114.115934,45.1671653 114.578179,44.0929269 115.431568,43.3848649 L165.939676,1.44237838 C166.541865,0.943059036 167.295509,0.662576836 168.077622,0.646702703 C178.871664,0.620696555 189.646967,1.54680761 200.27827,3.41427027 C201.503503,3.60145773 202.534971,4.4298167 202.982204,5.58576463 C203.429437,6.74171256 203.224088,8.0485933 202.443892,9.01167568 L153.748541,69.2754595 C153.101985,70.0938393 152.120721,70.5768447 151.077838,70.5900541 Z M123.540541,45.6681081 L150.337514,62.5641081 L193.283243,9.37837838 C185.394436,8.17490968 177.427584,7.55513719 169.447568,7.52410811 L123.540541,45.6681081 Z" id="Shape" fill-rule="nonzero"></path>
                <path d="M117.659459,88.4339459 C115.748853,88.4339459 114.2,86.8850932 114.2,84.9744865 L114.2,82.4144865 C114.2,80.5038798 115.748853,78.955027 117.659459,78.955027 C119.570066,78.955027 121.118919,80.5038798 121.118919,82.4144865 L121.118919,84.9744865 C121.118919,86.8850932 119.570066,88.4339459 117.659459,88.4339459 Z" id="Path"></path>
                <path d="M117.659459,118.48973 C115.748853,118.48973 114.2,116.940877 114.2,115.03027 L114.2,112.47027 C114.2,110.559664 115.748853,109.010811 117.659459,109.010811 C119.570066,109.010811 121.118919,110.559664 121.118919,112.47027 L121.118919,115.03027 C121.118919,116.940877 119.570066,118.48973 117.659459,118.48973 Z" id="Path"></path>
                <path d="M117.659459,148.545514 C115.748853,148.545514 114.2,146.996661 114.2,145.086054 L114.2,142.526054 C114.2,140.615447 115.748853,139.066595 117.659459,139.066595 C119.570066,139.066595 121.118919,140.615447 121.118919,142.526054 L121.118919,145.086054 C121.118919,146.996661 119.570066,148.545514 117.659459,148.545514 Z" id="Path"></path>
                <path d="M4.15459459,174.276973 C2.24398789,174.276973 0.695135135,172.72812 0.695135135,170.817514 L0.695135135,102.610811 C0.695135135,100.700204 2.24398789,99.1513514 4.15459459,99.1513514 C6.0652013,99.1513514 7.61405405,100.700204 7.61405405,102.610811 L7.61405405,170.824432 C7.61023824,172.732337 6.06250255,174.276977 4.15459459,174.276973 Z" id="Path"></path>
                <path d="M231.150486,174.276973 C229.23988,174.276973 227.691027,172.72812 227.691027,170.817514 L227.691027,102.610811 C227.691027,100.700204 229.23988,99.1513514 231.150486,99.1513514 C233.061093,99.1513514 234.609946,100.700204 234.609946,102.610811 L234.609946,170.824432 C234.60613,172.732337 233.058394,174.276977 231.150486,174.276973 Z" id="Path"></path>
                <path d="M329.544432,132.625081 C327.633826,132.625081 326.084973,131.076228 326.084973,129.165622 L326.084973,122.661838 C326.070795,105.306854 322.635809,88.1248681 315.976432,72.0983784 C315.45722,70.9471965 315.606545,69.6045613 316.366004,68.59559 C317.125463,67.5866188 318.374371,67.071647 319.624268,67.252085 C320.874165,67.432523 321.926431,68.2796974 322.369514,69.4622703 C329.377401,86.3214283 332.99116,104.397276 333.003892,122.654919 L333.003892,129.158703 C333.005729,130.077407 332.642063,130.959112 331.993089,131.609384 C331.344115,132.259656 330.463138,132.625083 329.544432,132.625081 Z" id="Path"></path>
                <path d="M329.544432,152.081081 C327.633826,152.081081 326.084973,150.532228 326.084973,148.621622 L326.084973,144.947676 C326.084973,143.037069 327.633826,141.488216 329.544432,141.488216 C331.455039,141.488216 333.003892,143.037069 333.003892,144.947676 L333.003892,148.621622 C333.003892,150.532228 331.455039,152.081081 329.544432,152.081081 Z" id="Path"></path>
            </g>
            <polyline id="Path" fill="#FCD462" points="242.473514 282.153081 245.31027 307.469405 194.760649 349.508757 144.211027 307.676973 147.047784 282.229189"></polyline>
            <path d="M194.75373,352.940541 C193.950173,352.938896 193.172252,352.657572 192.553514,352.144865 L142.003892,310.313081 C141.10461,309.571713 140.639068,308.427366 140.765405,307.268757 L143.602162,281.814054 C143.684599,280.892888 144.139782,280.045385 144.862221,279.467956 C145.58466,278.890528 146.511638,278.633302 147.428324,278.755892 C149.324743,278.969443 150.690028,280.678371 150.479568,282.575135 L147.843459,306.175568 L194.739892,344.983784 L241.650162,305.968 L239.020973,282.505946 C238.917939,281.593894 239.181575,280.678281 239.753845,279.960673 C240.326115,279.243064 241.160105,278.782289 242.072216,278.679784 C243.963611,278.492357 245.660219,279.845349 245.898378,281.731027 L248.735135,307.040432 C248.863123,308.197806 248.400277,309.34192 247.503568,310.084757 L196.947027,352.131027 C196.332022,352.647214 195.556618,352.933404 194.75373,352.940541 Z" id="Path" fill="#323C6B"></path>
            <path d="M296.12973,169.153297 C304.512451,173.459314 310.026116,181.84271 310.659459,191.245405 C310.187396,206.149626 298.582617,218.314677 283.717189,219.488432 L104.870054,219.405405 C90.3605391,217.82416 79.2270137,205.805616 78.7580541,191.21773 C79.4488217,181.384902 85.4461955,172.711124 94.4017297,168.592865 L296.12973,169.153297 Z" id="Path" fill="#FCD462"></path>
            <path d="M283.931676,222.940973 L104.863135,222.864865 C88.4870012,221.18103 75.8654995,207.67044 75.2985946,191.21773 C75.9715864,180.028362 82.7580939,170.121285 92.9487568,165.451676 C93.4042751,165.241489 93.9000575,165.132889 94.4017297,165.133405 L296.136649,165.673081 C296.691037,165.675131 297.236813,165.810389 297.728,166.067459 C307.281413,170.946892 313.523036,180.534594 314.118919,191.245405 C313.663704,207.984527 300.628742,221.670788 283.931676,222.940973 Z M95.1904865,172.08 C87.7894401,175.734245 82.8601619,183.016432 82.2175135,191.245405 C82.6478744,204.053375 92.4280075,214.597167 105.167568,215.987459 L283.751784,216.028973 C296.675554,214.813997 306.701955,204.216603 307.2,191.245405 C306.618254,183.40792 302.111537,176.396604 295.223351,172.612757 L95.1904865,172.08 Z" id="Shape" fill="#323C6B" fill-rule="nonzero"></path>
            <path d="M286.035027,136.219243 L286.035027,212.161297 C286.035027,253.640216 255.557189,281.419676 229.749622,297.416216 C208.307242,310.847793 181.075677,310.847793 159.633297,297.416216 C133.82573,281.419676 103.410162,253.633297 103.410162,212.161297 L103.410162,136.219243 L286.035027,136.219243 Z" id="Path" fill="#FCD462"></path>
            <path d="M286.028108,136.24 L286.028108,212.140541 C286.028108,253.654054 255.584865,281.398919 229.777297,297.450811 C211.414611,308.937576 188.588177,310.695444 168.683243,302.155676 C183.39296,303.700602 198.197519,300.291658 210.75027,292.469189 C236.557838,276.486486 267.001081,248.672432 267.001081,207.228108 L267.001081,136.24 L286.028108,136.24 Z" id="Path" fill="#F7BE56"></path>
            <path d="M385.895784,477.709405 L3.61859459,477.709405 C1.70798789,477.709405 0.159135135,476.160553 0.159135135,474.249946 L0.159135135,426.09427 C0.159135135,370.493838 38.7943784,320.788324 90.0220541,310.472216 L111.242378,306.071784 C113.10818,305.708118 114.923275,306.899754 115.331459,308.756324 C115.718957,310.626741 114.517199,312.457253 112.646919,312.845405 L91.4058378,317.245838 C43.3193514,326.932324 7.07805405,373.718054 7.07805405,426.087351 L7.07805405,470.790486 L382.436324,470.790486 L382.436324,426.09427 C382.436324,373.932541 345.952865,327.243676 297.568865,317.508757 L276.272432,313.71027 C274.438277,313.329472 273.240433,311.557948 273.570255,309.713943 C273.900077,307.869939 275.637726,306.623461 277.490162,306.902054 L298.897297,310.735135 C350.519351,321.113514 389.389838,370.729081 389.389838,426.121946 L389.389838,474.284541 C389.380709,475.202061 389.007446,476.07837 388.352174,476.720666 C387.696901,477.362963 386.813303,477.718626 385.895784,477.709405 Z" id="Path" fill="#323C6B"></path>
            <path d="M194.649946,310.901189 C181.61632,310.92805 168.840162,307.272923 157.792865,300.356757 C131.417946,284.000432 99.9576216,255.383784 99.9576216,212.168216 L99.9576216,136.219243 C99.9576216,134.308637 101.506474,132.759784 103.417081,132.759784 L286.076541,132.759784 C287.987147,132.759784 289.536,134.308637 289.536,136.219243 L289.536,212.161297 C289.536,255.369946 258.034162,283.972757 231.610811,300.356757 C220.523784,307.269582 207.715504,310.92361 194.649946,310.901189 Z M106.869622,139.678703 L106.869622,212.161297 C106.869622,252.221838 136.551784,279.039568 161.459892,294.496432 C181.79083,307.155907 207.550575,307.155907 227.881514,294.496432 C252.824216,279.032649 282.540973,252.201081 282.540973,212.161297 L282.540973,139.678703 L106.869622,139.678703 Z" id="Shape" fill="#323C6B" fill-rule="nonzero"></path>
            <path d="M89.3993514,125.667892 C94.0972973,54.1055135 138.994162,3.76345946 194.726054,3.76345946 C250.596324,3.76345946 295.61773,54.4445405 300.052757,126.345946 L89.3993514,125.667892 Z" id="Path" fill="#FC0000"></path>
            <path d="M300.073514,126.345946 L282.291892,126.276757 C274.196757,60.3394595 231.022703,14.812973 178.092973,14.812973 C163.404671,14.7984338 148.936853,18.3856925 135.956757,25.2605405 C152.409866,11.4244086 173.200959,3.80835459 194.698378,3.7427027 C250.603243,3.7427027 295.645405,54.4583784 300.073514,126.345946 Z" id="Path" fill="#DA3333"></path>
            <path d="M146.411243,105.139459 L146.072216,105.139459 C144.171623,104.957085 142.778134,103.269414 142.958703,101.368649 C148.784432,40.9388108 169.589622,0.352432432 194.726054,0.352432432 C219.862486,0.352432432 240.688432,40.8972973 246.507243,101.278703 C246.698304,103.189309 245.304336,104.893047 243.39373,105.084108 C241.483123,105.275169 239.779385,103.881201 239.588324,101.970595 C234.329946,47.068973 215.455135,7.23675676 194.732973,7.23675676 C174.010811,7.23675676 155.136,47.0966486 149.856865,102.025946 C149.679067,103.795017 148.189226,105.14126 146.411243,105.139459 Z" id="Path" fill="#323C6B"></path>
            <path d="M73.5342703,96.9405405 C72.5138082,96.9427993 71.5444076,96.4944049 70.8853661,95.715295 C70.2263245,94.9361852 69.9448838,93.9058522 70.1163243,92.8998919 C70.2685405,92.0004324 70.4276757,91.100973 70.6352432,90.2222703 C70.8883918,88.9882503 71.7923124,87.9893765 72.9949993,87.6146316 C74.1976862,87.2398867 75.5090105,87.5485128 76.4183146,88.4203245 C77.3276187,89.2921361 77.6911537,90.5893114 77.3673514,91.8067027 C77.2012973,92.5401081 77.0698378,93.2942703 76.9383784,94.0553514 C76.6584698,95.718176 75.2204855,96.9369554 73.5342703,96.9405405 Z" id="Path" fill="#323C6B"></path>
            <path d="M78.5020541,79.5602162 C77.3855479,79.5616237 76.3369993,79.0240881 75.6863558,78.1167562 C75.0357124,77.2094244 74.8629703,76.043852 75.2224865,74.9868108 C80.9361996,57.7991093 89.5526881,41.7174937 100.697946,27.44 C101.451204,26.434459 102.690417,25.91635 103.935229,26.0865077 C105.18004,26.2566655 106.234747,27.0883386 106.690512,28.2591453 C107.146277,29.4299519 106.931447,30.7558232 106.129297,31.7228108 C95.4739451,45.3829111 87.2366845,60.7669315 81.7747027,77.2077838 C81.3004037,78.6120361 79.9842415,79.5581146 78.5020541,79.5602162 Z" id="Path" fill="#323C6B"></path>
            <path d="M90.4925405,142.453189 C93.356973,160.442378 95.8131892,178.265514 95.8131892,178.265514 C96.4247086,181.902996 99.6337681,184.526439 103.320216,184.402595 L104.344216,184.402595 C108.031299,184.644003 111.278169,181.995161 111.782054,178.334703 C111.373838,172.605838 119.766486,145.179243 119.967135,142.453189" id="Path" fill="#9297AB"></path>
            <path d="M104.337297,187.868973 L103.320216,187.868973 C97.8743684,188.015014 93.1777121,184.069942 92.3814054,178.680649 C92.3814054,178.680649 89.9459459,160.940541 87.0745946,142.999784 C86.7746295,141.112104 88.0617261,139.338668 89.9494054,139.038703 C91.8370848,138.738738 93.6105211,140.025834 93.9104865,141.913514 C96.7749189,159.958054 99.2380541,177.801946 99.2380541,177.801946 C99.621329,179.724622 101.363014,181.070738 103.320216,180.956973 L104.337297,180.956973 C106.412973,180.956973 108.260324,179.670054 108.315676,178.189405 C109.377972,169.021083 111.352734,159.981683 114.210595,151.205622 C115.234595,147.372541 116.403892,143.020541 116.514595,142.155676 C116.781177,140.302915 118.423878,138.964084 120.292324,139.076757 C122.151469,139.234803 123.540327,140.854624 123.412757,142.716108 C122.775347,146.189645 121.934402,149.622732 120.89427,152.997622 C118.388196,161.210719 116.49642,169.598827 115.234595,178.092541 C114.831913,183.756308 110.011402,188.080995 104.337297,187.868973 Z" id="Path" fill="#323C6B"></path>
            <path d="M269.50573,142.453189 C269.713297,145.179243 278.099027,172.605838 277.690811,178.334703 C278.194696,181.995161 281.441566,184.644003 285.128649,184.402595 L286.152649,184.402595 C289.839097,184.526439 293.048156,181.902996 293.659676,178.265514 C293.659676,178.265514 296.115892,160.463135 298.980324,142.453189" id="Path" fill="#9297AB"></path>
            <path d="M286.14573,187.868973 L285.12173,187.868973 C279.580089,188.103962 274.810995,183.989331 274.231351,178.473081 C273.016975,169.831547 271.122223,161.29938 268.564757,152.956108 C267.5325,149.595936 266.693932,146.179291 266.053189,142.723027 C265.982625,141.807169 266.279201,140.900847 266.877534,140.203873 C267.475868,139.506899 268.326828,139.076502 269.242811,139.007568 C271.125212,138.894068 272.761733,140.286332 272.951351,142.162595 C273.068973,143.055135 274.231351,147.358703 275.248432,151.157189 C278.158608,160.070765 280.136468,169.262134 281.15027,178.583784 C281.212541,179.670054 283.066811,180.950054 285.128649,180.950054 L286.152649,180.950054 C288.072434,181.066882 289.791978,179.769888 290.207135,177.891892 C290.207135,177.822703 292.684108,159.98573 295.548541,141.913514 C295.742584,140.692399 296.573344,139.667564 297.727882,139.225053 C298.88242,138.782542 300.185334,138.989584 301.145828,139.768188 C302.106323,140.546792 302.578476,141.778669 302.384432,142.999784 C299.52,160.988973 297.063784,178.742919 297.063784,178.742919 C296.251611,184.105802 291.567632,188.02099 286.14573,187.868973 Z" id="Path" fill="#323C6B"></path>
            <path d="M81.7539459,130.047568 C153.710703,87.3232432 233.880216,88.1604324 306.515027,129.929946 C310.755508,132.286263 312.870759,137.208148 311.662051,141.906332 C310.453342,146.604516 306.225416,149.894483 301.37427,149.911784 L87.1783784,149.911784 C82.3696293,149.906608 78.1578352,146.687149 76.891065,142.04825 C75.6242949,137.40935 77.6152378,132.496075 81.7539459,130.047568 Z" id="Path" fill="#FC0000"></path>
            <path d="M301.388108,149.939459 L281.738378,149.939459 C286.594913,149.931219 290.833913,146.646134 292.05385,141.94531 C293.273788,137.244485 291.167213,132.312625 286.927568,129.943784 C255.505603,111.364654 220.076274,100.61483 183.628108,98.6010811 C226.755556,96.9615316 269.434866,107.847639 306.508108,129.943784 C310.748477,132.298995 312.866441,137.218181 311.663251,141.917125 C310.460061,146.61607 306.238571,149.912005 301.388108,149.939459 Z" id="Path" fill="#FC0000"></path>
            <path d="M300.045838,129.805405 C298.215953,129.808926 296.699828,128.386801 296.586378,126.560432 C292.324324,57.4127568 249.475459,7.22291892 194.712216,7.22291892 C140.204973,7.22291892 97.3699459,57.1290811 92.8380541,125.889297 C92.7886731,126.80917 92.3700726,127.670165 91.6771238,128.277146 C90.984175,128.884128 90.0755539,129.185699 89.1571892,129.113514 C88.2414571,129.05312 87.3872461,128.631342 86.7825549,127.941008 C86.1778637,127.250674 85.8722494,126.348359 85.932973,125.432649 C90.7001081,52.9292973 136.441081,0.304 194.712216,0.304 C253.24627,0.304 298.994162,53.2198919 303.491459,126.131459 C303.609768,128.038194 302.160122,129.679888 300.253405,129.798486 L300.045838,129.805405 Z" id="Path" fill="#323C6B"></path>
            <path d="M301.367351,153.378162 L87.1783784,153.378162 C80.7892119,153.486741 75.1624695,149.191518 73.5827027,142.999784 C71.8455794,136.853536 74.4828577,130.310128 79.9965405,127.08627 C152.479135,84.0229189 233.541189,83.9883243 308.237838,126.940973 C313.902123,130.110235 316.676632,136.732521 314.963027,142.992865 C313.410834,149.203747 307.767808,153.514273 301.367351,153.378162 Z M83.5113514,133.022703 C80.725653,134.681404 79.3863873,137.992973 80.2359012,141.121828 C81.0854151,144.250683 83.9155672,146.430215 87.1576216,146.452324 L301.367351,146.452324 C304.622029,146.547949 307.502959,144.361323 308.28627,141.200865 C309.212552,137.965066 307.776653,134.518909 304.826811,132.898162 C232.371892,91.2393514 153.79373,91.267027 83.5597838,132.988108 L83.5113514,133.022703 Z" id="Shape" fill="#323C6B" fill-rule="nonzero"></path>
            <path d="M198.296216,127.072432 L200.371892,127.024 C202.339817,126.99343 203.959917,128.563967 203.990486,130.531892 C204.021056,132.499817 202.450519,134.119917 200.482595,134.150486 L198.406919,134.198919 C197.133895,134.218694 195.947022,133.557817 195.293384,132.465233 C194.639746,131.372649 194.618646,130.014349 195.238033,128.90199 C195.857419,127.789631 197.023192,127.092208 198.296216,127.072432 Z" id="Path" fill="#FFFFFF"></path>
            <path d="M144.709189,127.266162 L185.821405,127.224649 C187.78933,127.194079 189.40943,128.764616 189.44,130.732541 C189.47057,132.700465 187.900033,134.320565 185.932108,134.351135 L144.819892,134.392649 C142.851967,134.423218 141.231867,132.852682 141.201297,130.884757 C141.170728,128.916832 142.741264,127.296732 144.709189,127.266162 Z" id="Path" fill="#FFFFFF"></path>
        </g>
    </g>
</svg>